<?xml version="1.0" encoding="utf-8"?>
<!-- Generator: Adobe Illustrator 24.0.2, SVG Export Plug-In . SVG Version: 6.00 Build 0)  -->
<svg version="1.1" id="Layer_1" xmlns="http://www.w3.org/2000/svg" xmlns:xlink="http://www.w3.org/1999/xlink" x="0px" y="0px"
	 viewBox="0 0 1076.9 1076.9" style="enable-background:new 0 0 1076.9 1076.9;" xml:space="preserve">
<style type="text/css">
	.st0{fill:#0086FF;}
</style>
<path class="st0" d="M362.4,176c0-97.2,78.8-176,176-176s176,78.8,176,176c0,74.1-102.3,230.6-151,300.7
	c-12.3,17.7-37.8,17.7-50.1,0C464.7,406.6,362.4,250.1,362.4,176z"/>
<path class="st0" d="M176,714.4c-97.2,0-176-78.8-176-176s78.8-176,176-176c74.1,0,230.6,102.3,300.7,151
	c17.7,12.3,17.7,37.8,0,50.1C406.6,612.1,250.1,714.4,176,714.4z"/>
<path class="st0" d="M900.9,362.4c97.2,0,176,78.8,176,176s-78.8,176-176,176c-74.1,0-230.6-102.3-300.7-151
	c-17.7-12.3-17.7-37.8,0-50.1C670.3,464.7,826.8,362.4,900.9,362.4z"/>
<path class="st0" d="M538.4,1076.9c97.2,0,176-78.8,176-176c0-74.1-102.3-230.6-150.9-300.7c-12.3-17.7-37.8-17.7-50.1,0
	c-48.7,70.1-151,226.6-151,300.7C362.4,998.1,441.2,1076.9,538.4,1076.9z M458.4,900.9c0,44.2,35.8,80,80,80c8.8,0,16,7.2,16,16
	s-7.2,16-16,16c-61.9,0-112-50.1-112-112c0-8.8,7.2-16,16-16C451.2,884.9,458.4,892.1,458.4,900.9z"/>
</svg>
